<svg xmlns="http://www.w3.org/2000/svg" viewBox="0 0 7.566 7.09">
   <path d="M0 0v.195C.207.216.343.3.408.443c.066.142.098.43.098.864 0 .678.072 1.198.217 1.556.148.355.428.641.838.862.41.22.985.34 1.726.357v1.639c0 .41-.026.676-.078.8a.522.522 0 0 1-.299.28c-.148.062-.377.094-.683.097v.192h3.11v-.192c-.313 0-.545-.037-.696-.109a.565.565 0 0 1-.295-.283c-.045-.12-.067-.382-.067-.785V4.082c.734-.017 1.31-.137 1.73-.361.421-.224.7-.515.839-.873.14-.362.21-.874.21-1.535 0-.452.035-.747.104-.885.072-.142.208-.219.404-.233V0c-.547 0-.942.144-1.183.434-.238.286-.369.723-.393 1.312-.024.53-.077.91-.16 1.137-.08.227-.242.421-.486.58-.241.158-.596.236-1.065.236V1.447c0-.403.022-.666.067-.787A.522.522 0 0 1 4.64.383c.148-.07.38-.106.697-.11V.082H2.227v.191c.317.004.55.04.699.11a.518.518 0 0 1 .289.283c.048.117.072.378.072.781V3.7c-.465 0-.822-.078-1.07-.236-.248-.162-.411-.357-.49-.584-.076-.227-.127-.606-.15-1.133-.018-.427-.093-.771-.223-1.033C1.226.45 1.055.267.842.164.628.061.348.007 0 0z" style="-inkscape-font-specification:serif" fill="#c62828"/>
   <path style="-inkscape-font-specification:serif" d="M0 0v.195C.207.216.343.3.408.443c.066.142.098.43.098.864 0 .678.072 1.198.217 1.556.148.355.428.641.838.862.41.22.985.34 1.726.357h.992c.734-.017 1.31-.137 1.73-.361.421-.224.7-.515.839-.873.14-.362.21-.874.21-1.535 0-.452.035-.747.104-.885.072-.142.208-.219.404-.233V0c-.547 0-.942.144-1.183.434-.238.286-.369.723-.393 1.312-.024.53-.077.91-.16 1.137-.08.227-.242.421-.486.58-.241.158-.596.236-1.065.236h-.992c-.465 0-.822-.078-1.07-.236-.248-.162-.411-.357-.49-.584-.076-.227-.127-.606-.15-1.133-.018-.427-.093-.771-.223-1.033C1.226.45 1.055.267.842.164.628.061.348.007 0 0z" fill="#00000f"/>
</svg>
